<svg width="24" height="24" viewBox="0 0 24 24" fill="none" xmlns="http://www.w3.org/2000/svg">
<path d="M20.6233 15.8523L11.9983 20.8819L3.37334 15.8523C3.20257 15.7672 3.00582 15.7505 2.82313 15.8054C2.64044 15.8603 2.48554 15.9828 2.38997 16.1479C2.2944 16.313 2.26533 16.5083 2.30869 16.6941C2.35205 16.8799 2.46456 17.0421 2.62334 17.1479L11.6233 22.3979C11.738 22.4648 11.8684 22.5 12.0012 22.5C12.1339 22.5 12.2643 22.4648 12.379 22.3979L21.379 17.1479C21.4654 17.099 21.5413 17.0334 21.6022 16.9549C21.6631 16.8765 21.7078 16.7867 21.7337 16.6908C21.7596 16.5949 21.7662 16.4949 21.7531 16.3964C21.74 16.2979 21.7076 16.2031 21.6575 16.1173C21.6075 16.0315 21.5409 15.9565 21.4616 15.8966C21.3824 15.8368 21.292 15.7932 21.1958 15.7686C21.0996 15.7439 20.9995 15.7386 20.9012 15.753C20.8029 15.7674 20.7085 15.8011 20.6233 15.8523Z" fill="#033839"/>
<path d="M20.6233 11.3523L11.9983 16.3819L3.37334 11.3523C3.20257 11.2672 3.00582 11.2505 2.82313 11.3054C2.64044 11.3603 2.48554 11.4828 2.38997 11.6479C2.2944 11.813 2.26533 12.0083 2.30869 12.1941C2.35205 12.3799 2.46456 12.5421 2.62334 12.6479L11.6233 17.8979C11.738 17.9648 11.8684 18 12.0012 18C12.1339 18 12.2643 17.9648 12.379 17.8979L21.379 12.6479C21.4654 12.599 21.5413 12.5334 21.6022 12.4549C21.6631 12.3765 21.7078 12.2867 21.7337 12.1908C21.7596 12.0949 21.7662 11.9949 21.7531 11.8964C21.74 11.7979 21.7076 11.7031 21.6575 11.6173C21.6075 11.5315 21.5409 11.4565 21.4616 11.3966C21.3824 11.3368 21.292 11.2932 21.1958 11.2686C21.0996 11.2439 20.9995 11.2386 20.9012 11.253C20.8029 11.2674 20.7085 11.3011 20.6233 11.3523Z" fill="#033839"/>
<path d="M2.62597 8.14774L11.626 13.3977C11.7406 13.4646 11.871 13.4999 12.0038 13.4999C12.1365 13.4999 12.2669 13.4646 12.3816 13.3977L21.3816 8.14774C21.4948 8.08169 21.5887 7.98712 21.654 7.87345C21.7193 7.75979 21.7537 7.631 21.7537 7.49993C21.7537 7.36885 21.7193 7.24006 21.654 7.1264C21.5887 7.01274 21.4948 6.91816 21.3816 6.85211L12.3816 1.60211C12.2669 1.53524 12.1365 1.5 12.0038 1.5C11.871 1.5 11.7406 1.53524 11.626 1.60211L2.62597 6.85211C2.51275 6.91816 2.41882 7.01274 2.35354 7.1264C2.28826 7.24006 2.25391 7.36885 2.25391 7.49993C2.25391 7.631 2.28826 7.75979 2.35354 7.87345C2.41882 7.98712 2.51275 8.08169 2.62597 8.14774Z" fill="#033839"/>
</svg>
