<svg width="32" height="32" viewBox="0 0 32 32" fill="none" xmlns="http://www.w3.org/2000/svg">
<path d="M27 14.5861V26.9998H19V18.9998H13V26.9998H5V14.5861L15.2925 4.29231C15.3854 4.19933 15.4957 4.12557 15.6171 4.07525C15.7385 4.02493 15.8686 3.99902 16 3.99902C16.1314 3.99902 16.2615 4.02493 16.3829 4.07525C16.5043 4.12557 16.6146 4.19933 16.7075 4.29231L27 14.5861Z" fill="#9EEEE6"/>
<path d="M30 25.9998H28V16.9998L28.2925 17.2923C28.4805 17.48 28.7353 17.5853 29.0009 17.585C29.2665 17.5848 29.5211 17.4791 29.7087 17.2911C29.8964 17.1031 30.0017 16.8483 30.0014 16.5827C30.0012 16.3171 29.8955 16.0625 29.7075 15.8748L17.4137 3.58483C17.0387 3.21005 16.5302 2.99951 16 2.99951C15.4698 2.99951 14.9613 3.21005 14.5863 3.58483L2.2925 15.8748C2.10503 16.0625 1.99977 16.3169 1.99989 16.5822C2 16.8474 2.10548 17.1017 2.29312 17.2892C2.48077 17.4767 2.7352 17.5819 3.00044 17.5818C3.26569 17.5817 3.52003 17.4762 3.7075 17.2886L4 16.9998V25.9998H2C1.73478 25.9998 1.48043 26.1052 1.29289 26.2927C1.10536 26.4803 1 26.7346 1 26.9998C1 27.2651 1.10536 27.5194 1.29289 27.7069C1.48043 27.8945 1.73478 27.9998 2 27.9998H30C30.2652 27.9998 30.5196 27.8945 30.7071 27.7069C30.8946 27.5194 31 27.2651 31 26.9998C31 26.7346 30.8946 26.4803 30.7071 26.2927C30.5196 26.1052 30.2652 25.9998 30 25.9998ZM6 14.9998L16 4.99983L26 14.9998V25.9998H20V18.9998C20 18.7346 19.8946 18.4803 19.7071 18.2927C19.5196 18.1052 19.2652 17.9998 19 17.9998H13C12.7348 17.9998 12.4804 18.1052 12.2929 18.2927C12.1054 18.4803 12 18.7346 12 18.9998V25.9998H6V14.9998ZM18 25.9998H14V19.9998H18V25.9998Z" fill="#033839"/>
</svg>
