<svg width="24" height="14" viewBox="0 0 24 14" fill="none" xmlns="http://www.w3.org/2000/svg">
<path d="M23.1751 0H19.3747C18.7734 0 18.2442 0.404117 18.0518 1.01029L16.8492 4.92518C16.4763 6.1249 15.7668 6.93313 14.0109 6.93313H11.5455L13.3254 1.13658C13.4938 0.56829 13.0969 0 12.5316 0H8.73125C8.12993 0 7.60076 0.404117 7.40834 1.01029L6.20569 4.92518C5.83286 6.1249 5.1233 6.93313 3.36743 6.93313H0L6.96336 13.5379C7.8894 14.4093 9.35663 13.9926 9.74148 12.7549L11.329 7.58982L17.6068 13.5379C18.5329 14.4093 20.0001 13.9926 20.385 12.7549L22.1769 6.93313L23.9568 1.14921C24.1372 0.580918 23.7283 0 23.1751 0Z" fill="#888D95"/>
</svg>
